<svg width="27" height="27" viewBox="0 0 27 27" fill="none" xmlns="http://www.w3.org/2000/svg">
<path d="M10.8335 7.5V4.5C10.8335 3.70435 11.1144 2.94129 11.6145 2.37868C12.1146 1.81607 12.7929 1.5 13.5002 1.5H22.8335C23.5407 1.5 24.219 1.81607 24.7191 2.37868C25.2192 2.94129 25.5002 3.70435 25.5002 4.5V22.5C25.5002 23.2956 25.2192 24.0587 24.7191 24.6213C24.219 25.1839 23.5407 25.5 22.8335 25.5H13.5002C12.7929 25.5 12.1146 25.1839 11.6145 24.6213C11.1144 24.0587 10.8335 23.2956 10.8335 22.5V19.5" stroke="white" stroke-width="2" stroke-linecap="round" stroke-linejoin="round"/>
<path d="M17.5 13.5H1.5M1.5 13.5L5.5 9M1.5 13.5L5.5 18" stroke="white" stroke-width="2" stroke-linecap="round" stroke-linejoin="round"/>
</svg>
