<svg width="173" height="55" viewBox="0 0 173 55" fill="none" xmlns="http://www.w3.org/2000/svg">
<path d="M64.2931 18.5817V37.7771H60.338V18.5817H64.2931ZM71.9396 26.7819V29.8669H63.212V26.7819H71.9396ZM72.8624 18.5817V21.6799H63.212V18.5817H72.8624ZM78.9269 23.5124V37.7771H75.1168V23.5124H78.9269ZM74.8795 19.7946C74.8795 19.2409 75.0729 18.7839 75.4596 18.4235C75.8463 18.0632 76.3649 17.883 77.0153 17.883C77.6569 17.883 78.171 18.0632 78.5577 18.4235C78.9532 18.7839 79.151 19.2409 79.151 19.7946C79.151 20.3484 78.9532 20.8054 78.5577 21.1657C78.171 21.5261 77.6569 21.7063 77.0153 21.7063C76.3649 21.7063 75.8463 21.5261 75.4596 21.1657C75.0729 20.8054 74.8795 20.3484 74.8795 19.7946ZM85.7823 26.5578V37.7771H81.9855V23.5124H85.545L85.7823 26.5578ZM85.2286 30.1438H84.2003C84.2003 29.0891 84.3365 28.1399 84.609 27.2961C84.8815 26.4436 85.2638 25.7185 85.756 25.1208C86.2482 24.5144 86.8326 24.0529 87.5094 23.7365C88.1949 23.4113 88.9596 23.2487 89.8033 23.2487C90.4713 23.2487 91.0822 23.3454 91.6359 23.5388C92.1896 23.7321 92.6642 24.0398 93.0597 24.4616C93.464 24.8835 93.7716 25.4416 93.9825 26.1359C94.2023 26.8303 94.3121 27.6784 94.3121 28.6804V37.7771H90.4889V28.6672C90.4889 28.0344 90.401 27.5422 90.2252 27.1906C90.0494 26.8391 89.7902 26.593 89.4474 26.4524C89.1134 26.3029 88.7003 26.2282 88.2081 26.2282C87.6984 26.2282 87.2545 26.3293 86.8766 26.5315C86.5074 26.7336 86.1998 27.0149 85.9537 27.3752C85.7164 27.7268 85.5363 28.1399 85.4132 28.6145C85.2902 29.0891 85.2286 29.5988 85.2286 30.1438ZM104.899 34.5603V28.2058C104.899 27.7487 104.824 27.3576 104.674 27.0324C104.525 26.6984 104.292 26.4392 103.976 26.2546C103.668 26.07 103.268 25.9777 102.776 25.9777C102.354 25.9777 101.989 26.0525 101.682 26.2019C101.374 26.3425 101.137 26.549 100.97 26.8215C100.803 27.0852 100.719 27.3972 100.719 27.7575H96.9225C96.9225 27.1511 97.0631 26.5754 97.3444 26.0305C97.6256 25.4856 98.0343 25.0066 98.5704 24.5935C99.1066 24.1716 99.7438 23.842 100.482 23.6047C101.229 23.3674 102.064 23.2487 102.987 23.2487C104.094 23.2487 105.079 23.4333 105.94 23.8025C106.801 24.1716 107.478 24.7253 107.97 25.4636C108.471 26.2019 108.722 27.1247 108.722 28.2321V34.3361C108.722 35.1184 108.77 35.76 108.867 36.2609C108.964 36.7531 109.104 37.1838 109.289 37.5529V37.7771H105.452C105.268 37.3903 105.127 36.9069 105.03 36.3269C104.943 35.738 104.899 35.1491 104.899 34.5603ZM105.4 29.0891L105.426 31.238H103.303C102.802 31.238 102.367 31.2951 101.998 31.4094C101.629 31.5236 101.326 31.6862 101.089 31.8972C100.851 32.0993 100.675 32.3366 100.561 32.6091C100.456 32.8816 100.403 33.1804 100.403 33.5056C100.403 33.8308 100.478 34.1252 100.627 34.3889C100.776 34.6438 100.992 34.8459 101.273 34.9953C101.554 35.1359 101.884 35.2063 102.262 35.2063C102.833 35.2063 103.33 35.092 103.752 34.8635C104.173 34.635 104.499 34.3537 104.727 34.0197C104.964 33.6858 105.088 33.3693 105.096 33.0705L106.098 34.6789C105.958 35.0393 105.764 35.4128 105.518 35.7995C105.281 36.1862 104.978 36.551 104.609 36.8938C104.239 37.2277 103.796 37.5046 103.277 37.7243C102.758 37.9353 102.143 38.0407 101.431 38.0407C100.526 38.0407 99.7042 37.8606 98.9659 37.5002C98.2365 37.1311 97.6564 36.6257 97.2257 35.9841C96.8038 35.3337 96.5929 34.5954 96.5929 33.7692C96.5929 33.0222 96.7335 32.3586 97.0148 31.7785C97.296 31.1984 97.7091 30.7107 98.254 30.3151C98.8077 29.9109 99.4977 29.6076 100.324 29.4055C101.15 29.1945 102.108 29.0891 103.198 29.0891H105.4ZM115.366 26.5578V37.7771H111.569V23.5124H115.129L115.366 26.5578ZM114.813 30.1438H113.784C113.784 29.0891 113.921 28.1399 114.193 27.2961C114.465 26.4436 114.848 25.7185 115.34 25.1208C115.832 24.5144 116.417 24.0529 117.093 23.7365C117.779 23.4113 118.544 23.2487 119.387 23.2487C120.055 23.2487 120.666 23.3454 121.22 23.5388C121.774 23.7321 122.248 24.0398 122.644 24.4616C123.048 24.8835 123.356 25.4416 123.567 26.1359C123.786 26.8303 123.896 27.6784 123.896 28.6804V37.7771H120.073V28.6672C120.073 28.0344 119.985 27.5422 119.809 27.1906C119.633 26.8391 119.374 26.593 119.031 26.4524C118.697 26.3029 118.284 26.2282 117.792 26.2282C117.282 26.2282 116.839 26.3293 116.461 26.5315C116.091 26.7336 115.784 27.0149 115.538 27.3752C115.3 27.7268 115.12 28.1399 114.997 28.6145C114.874 29.0891 114.813 29.5988 114.813 30.1438ZM137.014 32.7541C137.014 32.4113 136.961 32.1037 136.856 31.8313C136.759 31.55 136.574 31.2951 136.302 31.0666C136.029 30.8293 135.647 30.5964 135.155 30.3679C134.663 30.1394 134.026 29.9021 133.243 29.656C132.373 29.3747 131.547 29.0583 130.765 28.7067C129.991 28.3552 129.306 27.9465 128.708 27.4807C128.119 27.0061 127.653 26.4567 127.311 25.8327C126.977 25.2087 126.81 24.4836 126.81 23.6574C126.81 22.8576 126.985 22.1325 127.337 21.4821C127.689 20.823 128.181 20.2605 128.814 19.7946C129.446 19.32 130.193 18.9553 131.055 18.7004C131.925 18.4455 132.879 18.3181 133.916 18.3181C135.331 18.3181 136.566 18.573 137.62 19.0827C138.675 19.5925 139.492 20.2912 140.072 21.1789C140.661 22.0666 140.956 23.0817 140.956 24.2243H137.027C137.027 23.6618 136.908 23.1696 136.671 22.7478C136.443 22.3171 136.091 21.9787 135.616 21.7326C135.151 21.4865 134.562 21.3635 133.85 21.3635C133.164 21.3635 132.593 21.469 132.136 21.6799C131.679 21.882 131.336 22.1589 131.108 22.5105C130.879 22.8532 130.765 23.24 130.765 23.6706C130.765 23.9958 130.844 24.2902 131.002 24.5539C131.169 24.8176 131.415 25.0637 131.74 25.2922C132.066 25.5207 132.465 25.736 132.94 25.9382C133.415 26.1403 133.964 26.3381 134.588 26.5315C135.634 26.8479 136.552 27.2038 137.343 27.5993C138.143 27.9948 138.811 28.4387 139.347 28.9309C139.883 29.4231 140.288 29.9812 140.56 30.6052C140.833 31.2292 140.969 31.9367 140.969 32.7277C140.969 33.5627 140.806 34.3098 140.481 34.969C140.156 35.6281 139.686 36.1862 139.07 36.6433C138.455 37.1003 137.721 37.4475 136.869 37.6848C136.016 37.9221 135.063 38.0407 134.008 38.0407C133.059 38.0407 132.123 37.9177 131.2 37.6716C130.277 37.4167 129.438 37.0344 128.682 36.5246C127.935 36.0149 127.337 35.3645 126.889 34.5734C126.441 33.7824 126.216 32.8464 126.216 31.7653H130.185C130.185 32.363 130.277 32.8684 130.462 33.2815C130.646 33.6945 130.905 34.0285 131.239 34.2834C131.582 34.5383 131.986 34.7229 132.452 34.8371C132.927 34.9514 133.445 35.0085 134.008 35.0085C134.693 35.0085 135.256 34.9118 135.695 34.7185C136.144 34.5251 136.473 34.257 136.684 33.9143C136.904 33.5715 137.014 33.1848 137.014 32.7541ZM149.986 38.0407C148.879 38.0407 147.886 37.865 147.007 37.5134C146.128 37.153 145.381 36.6565 144.766 36.0236C144.159 35.3908 143.693 34.6569 143.368 33.822C143.043 32.9782 142.88 32.0817 142.88 31.1325V30.6052C142.88 29.5241 143.034 28.5354 143.342 27.6389C143.65 26.7424 144.089 25.9646 144.66 25.3054C145.24 24.6462 145.943 24.1408 146.77 23.7893C147.596 23.4289 148.527 23.2487 149.565 23.2487C150.575 23.2487 151.472 23.4157 152.254 23.7497C153.036 24.0837 153.691 24.5583 154.218 25.1735C154.755 25.7888 155.159 26.5271 155.431 27.3884C155.704 28.2409 155.84 29.1901 155.84 30.236V31.8181H144.502V29.2868H152.109V28.9968C152.109 28.4694 152.012 27.9992 151.819 27.5861C151.634 27.1643 151.353 26.8303 150.975 26.5842C150.597 26.3381 150.114 26.215 149.525 26.215C149.024 26.215 148.593 26.3249 148.233 26.5446C147.873 26.7644 147.578 27.072 147.35 27.4675C147.13 27.863 146.963 28.3288 146.849 28.865C146.743 29.3923 146.691 29.9724 146.691 30.6052V31.1325C146.691 31.7038 146.77 32.2312 146.928 32.7146C147.095 33.198 147.328 33.6154 147.627 33.967C147.934 34.3186 148.303 34.591 148.734 34.7844C149.173 34.9777 149.67 35.0744 150.224 35.0744C150.909 35.0744 151.547 34.9426 152.135 34.6789C152.733 34.4065 153.247 33.9978 153.678 33.4528L155.524 35.4567C155.225 35.8874 154.816 36.3005 154.297 36.696C153.788 37.0915 153.172 37.4167 152.452 37.6716C151.731 37.9177 150.909 38.0407 149.986 38.0407ZM164.568 38.0407C163.46 38.0407 162.467 37.865 161.588 37.5134C160.709 37.153 159.962 36.6565 159.347 36.0236C158.74 35.3908 158.275 34.6569 157.949 33.822C157.624 32.9782 157.462 32.0817 157.462 31.1325V30.6052C157.462 29.5241 157.615 28.5354 157.923 27.6389C158.231 26.7424 158.67 25.9646 159.241 25.3054C159.821 24.6462 160.525 24.1408 161.351 23.7893C162.177 23.4289 163.109 23.2487 164.146 23.2487C165.156 23.2487 166.053 23.4157 166.835 23.7497C167.617 24.0837 168.272 24.5583 168.799 25.1735C169.336 25.7888 169.74 26.5271 170.012 27.3884C170.285 28.2409 170.421 29.1901 170.421 30.236V31.8181H159.083V29.2868H166.69V28.9968C166.69 28.4694 166.593 27.9992 166.4 27.5861C166.215 27.1643 165.934 26.8303 165.556 26.5842C165.178 26.3381 164.695 26.215 164.106 26.215C163.605 26.215 163.174 26.3249 162.814 26.5446C162.454 26.7644 162.159 27.072 161.931 27.4675C161.711 27.863 161.544 28.3288 161.43 28.865C161.324 29.3923 161.272 29.9724 161.272 30.6052V31.1325C161.272 31.7038 161.351 32.2312 161.509 32.7146C161.676 33.198 161.909 33.6154 162.208 33.967C162.515 34.3186 162.884 34.591 163.315 34.7844C163.755 34.9777 164.251 35.0744 164.805 35.0744C165.49 35.0744 166.128 34.9426 166.716 34.6789C167.314 34.4065 167.828 33.9978 168.259 33.4528L170.105 35.4567C169.806 35.8874 169.397 36.3005 168.879 36.696C168.369 37.0915 167.754 37.4167 167.033 37.6716C166.312 37.9177 165.49 38.0407 164.568 38.0407Z" fill="#34B361"/>
<g clip-path="url(#clip0_99_154)">
<path d="M54.2584 32.8544C54.2584 32.8544 44.0849 17.7213 27.1292 17.7213C10.1734 17.7213 0 32.8544 0 32.8544C0 32.8544 10.1734 47.9875 27.1292 47.9875C44.0849 47.9875 54.2584 32.8544 54.2584 32.8544ZM3.97782 32.8544C5.615 30.8309 7.50111 28.9475 9.60713 27.2331C13.9715 23.6865 19.94 20.4728 27.1292 20.4728C34.3184 20.4728 40.2835 23.6865 44.6547 27.2331C46.7607 28.9475 48.6468 30.8309 50.284 32.8544C50.0895 33.0929 49.8691 33.357 49.6227 33.6468C48.4866 34.9675 46.808 36.7285 44.6547 38.4757C40.2835 42.0223 34.315 45.236 27.1292 45.236C19.9433 45.236 13.9749 42.0223 9.60373 38.4757C7.49772 36.7613 5.615 34.8779 3.97782 32.8544Z" fill="url(#paint0_radial_99_154)"/>
<path d="M20.4878 36.6009C20.7335 38.8466 22.9999 40.4403 26.4501 40.6464V42.2845H28.1819V40.6464C31.9509 40.4052 34.2887 38.7092 34.2887 36.2007C34.2887 34.0588 32.7163 32.8194 29.3807 32.1215L28.1819 31.8696V26.7477C30.0448 26.8959 31.3017 27.7096 31.6188 28.9247H34.0595C33.7839 26.7693 31.5026 25.2227 28.1819 25.0516V23.4243H26.4501V25.0853C23.2307 25.3952 21.0208 27.0683 21.0208 29.337C21.0208 31.2957 22.6247 32.682 25.439 33.2666L26.4518 33.4849V38.9153C24.544 38.6863 23.2307 37.8375 22.9136 36.6009H20.4878ZM26.1181 31.4331C24.3863 31.0788 23.4615 30.3217 23.4615 29.2561C23.4615 27.9844 24.6304 27.0454 26.4501 26.7935V31.5018L26.1181 31.4331ZM28.7597 33.955C30.8966 34.3902 31.8347 35.1122 31.8347 36.3382C31.8347 37.816 30.4632 38.8008 28.1819 38.9503V33.8378L28.7597 33.955Z" fill="#34B361"/>
</g>
<path d="M15.4564 25.3505C15.8853 29.2703 19.8412 32.0521 25.8634 32.4118V35.2711H28.8861V32.4118C35.4647 31.9909 39.5452 29.0305 39.5452 24.6522C39.5452 20.9134 36.8007 18.7501 30.9785 17.5321L28.8861 17.0924V8.15234C32.1377 8.41099 34.3316 9.83124 34.8851 11.9522H39.1453C38.6642 8.18996 34.6822 5.49054 28.8861 5.19191V2.35141H25.8634V5.2507C20.244 5.79152 16.3867 8.71197 16.3867 12.6717C16.3867 16.0907 19.1862 18.5103 24.0985 19.5308L25.8663 19.9117V29.3903C22.5364 28.9905 20.244 27.5091 19.6905 25.3505H15.4564ZM25.2838 16.3305C22.2611 15.7121 20.6469 14.3906 20.6469 12.5307C20.6469 10.3109 22.6871 8.672 25.8634 8.23228V16.4505L25.2838 16.3305ZM29.8946 20.7324C33.6244 21.4919 35.2619 22.7522 35.2619 24.892C35.2619 27.4715 32.868 29.1904 28.8861 29.4514V20.5278L29.8946 20.7324Z" fill="url(#paint1_linear_99_154)"/>
<defs>
<radialGradient id="paint0_radial_99_154" cx="0" cy="0" r="1" gradientUnits="userSpaceOnUse" gradientTransform="translate(18.5155 19.1378) rotate(158.721) scale(6.47938 8.1695)">
<stop offset="0.9999" stop-color="#666666" stop-opacity="0"/>
<stop offset="1" stop-color="#34B361"/>
</radialGradient>
<linearGradient id="paint1_linear_99_154" x1="27.5008" y1="2.35141" x2="27.5008" y2="35.2711" gradientUnits="userSpaceOnUse">
<stop offset="0.552785" stop-color="#34B361"/>
<stop offset="0.552885"/>
<stop offset="0.552985" stop-color="#666666" stop-opacity="0"/>
</linearGradient>
<clipPath id="clip0_99_154">
<rect width="54.2584" height="44.0236" fill="white" transform="translate(0 10.8426)"/>
</clipPath>
</defs>
</svg>
