<svg width="62" height="63" viewBox="0 0 62 63" fill="none" xmlns="http://www.w3.org/2000/svg">
<g filter="url(#filter0_d_112_88)">
<rect x="4" y="0.433105" width="54" height="54" rx="27" fill="#252425" shape-rendering="crispEdges"/>
<g clip-path="url(#clip0_112_88)">
<path d="M31 33.8081C29.3092 33.8081 27.6877 33.1365 26.4922 31.9409C25.2966 30.7454 24.625 29.1239 24.625 27.4331C24.625 25.7424 25.2966 24.1208 26.4922 22.9253C27.6877 21.7298 29.3092 21.0581 31 21.0581C32.6908 21.0581 34.3123 21.7298 35.5078 22.9253C36.7034 24.1208 37.375 25.7424 37.375 27.4331C37.375 29.1239 36.7034 30.7454 35.5078 31.9409C34.3123 33.1365 32.6908 33.8081 31 33.8081ZM31 35.9331C33.2543 35.9331 35.4163 35.0376 37.0104 33.4435C38.6045 31.8495 39.5 29.6874 39.5 27.4331C39.5 25.1788 38.6045 23.0168 37.0104 21.4227C35.4163 19.8286 33.2543 18.9331 31 18.9331C28.7457 18.9331 26.5837 19.8286 24.9896 21.4227C23.3955 23.0168 22.5 25.1788 22.5 27.4331C22.5 29.6874 23.3955 31.8495 24.9896 33.4435C26.5837 35.0376 28.7457 35.9331 31 35.9331ZM31 10.4331C31.2818 10.4331 31.552 10.545 31.7513 10.7443C31.9506 10.9436 32.0625 11.2138 32.0625 11.4956V15.7456C32.0625 16.0274 31.9506 16.2976 31.7513 16.4969C31.552 16.6962 31.2818 16.8081 31 16.8081C30.7182 16.8081 30.448 16.6962 30.2487 16.4969C30.0494 16.2976 29.9375 16.0274 29.9375 15.7456V11.4956C29.9375 11.2138 30.0494 10.9436 30.2487 10.7443C30.448 10.545 30.7182 10.4331 31 10.4331ZM31 38.0581C31.2818 38.0581 31.552 38.17 31.7513 38.3693C31.9506 38.5686 32.0625 38.8388 32.0625 39.1206V43.3706C32.0625 43.6524 31.9506 43.9226 31.7513 44.1219C31.552 44.3212 31.2818 44.4331 31 44.4331C30.7182 44.4331 30.448 44.3212 30.2487 44.1219C30.0494 43.9226 29.9375 43.6524 29.9375 43.3706V39.1206C29.9375 38.8388 30.0494 38.5686 30.2487 38.3693C30.448 38.17 30.7182 38.0581 31 38.0581ZM48 27.4331C48 27.7149 47.8881 27.9851 47.6888 28.1844C47.4895 28.3837 47.2193 28.4956 46.9375 28.4956H42.6875C42.4057 28.4956 42.1355 28.3837 41.9362 28.1844C41.7369 27.9851 41.625 27.7149 41.625 27.4331C41.625 27.1513 41.7369 26.8811 41.9362 26.6818C42.1355 26.4825 42.4057 26.3706 42.6875 26.3706H46.9375C47.2193 26.3706 47.4895 26.4825 47.6888 26.6818C47.8881 26.8811 48 27.1513 48 27.4331ZM20.375 27.4331C20.375 27.7149 20.2631 27.9851 20.0638 28.1844C19.8645 28.3837 19.5943 28.4956 19.3125 28.4956H15.0625C14.7807 28.4956 14.5105 28.3837 14.3112 28.1844C14.1119 27.9851 14 27.7149 14 27.4331C14 27.1513 14.1119 26.8811 14.3112 26.6818C14.5105 26.4825 14.7807 26.3706 15.0625 26.3706H19.3125C19.5943 26.3706 19.8645 26.4825 20.0638 26.6818C20.2631 26.8811 20.375 27.1513 20.375 27.4331ZM43.0211 15.412C43.2203 15.6112 43.3322 15.8814 43.3322 16.1632C43.3322 16.4449 43.2203 16.7151 43.0211 16.9144L40.0164 19.9212C39.9176 20.0199 39.8003 20.0981 39.6713 20.1514C39.5423 20.2048 39.404 20.2322 39.2644 20.2321C38.9825 20.2319 38.7122 20.1197 38.5129 19.9202C38.4143 19.8214 38.3361 19.7041 38.2827 19.5751C38.2294 19.4461 38.202 19.3078 38.2021 19.1682C38.2023 18.8863 38.3145 18.616 38.514 18.4167L41.5187 15.412C41.718 15.2128 41.9882 15.1009 42.2699 15.1009C42.5517 15.1009 42.8219 15.2128 43.0211 15.412ZM23.486 34.9471C23.6852 35.1464 23.7971 35.4166 23.7971 35.6983C23.7971 35.98 23.6852 36.2502 23.486 36.4495L20.4812 39.4542C20.2809 39.6478 20.0125 39.7549 19.7339 39.7524C19.4553 39.75 19.1888 39.6383 18.9918 39.4413C18.7948 39.2443 18.6831 38.9778 18.6807 38.6992C18.6782 38.4206 18.7853 38.1522 18.9789 37.9519L21.9836 34.9471C22.1829 34.7479 22.4531 34.636 22.7348 34.636C23.0165 34.636 23.2868 34.7479 23.486 34.9471ZM43.0211 39.4542C42.8219 39.6534 42.5517 39.7653 42.2699 39.7653C41.9882 39.7653 41.718 39.6534 41.5187 39.4542L38.514 36.4495C38.3205 36.2491 38.2134 35.9807 38.2158 35.7021C38.2182 35.4235 38.3299 35.157 38.5269 34.96C38.7239 34.7631 38.9904 34.6513 39.269 34.6489C39.5476 34.6465 39.816 34.7536 40.0164 34.9471L43.0211 37.9519C43.2203 38.1511 43.3322 38.4213 43.3322 38.703C43.3322 38.9848 43.2203 39.255 43.0211 39.4542ZM23.486 19.9212C23.2868 20.1204 23.0165 20.2323 22.7348 20.2323C22.4531 20.2323 22.1829 20.1204 21.9836 19.9212L18.9789 16.9144C18.8774 16.8163 18.7965 16.6991 18.7408 16.5695C18.6851 16.4398 18.6558 16.3004 18.6545 16.1593C18.6533 16.0183 18.6802 15.8784 18.7336 15.7478C18.7871 15.6172 18.8659 15.4986 18.9657 15.3988C19.0655 15.299 19.1841 15.2202 19.3147 15.1667C19.4453 15.1133 19.5852 15.0864 19.7262 15.0877C19.8673 15.0889 20.0067 15.1182 20.1364 15.1739C20.266 15.2296 20.3832 15.3105 20.4812 15.412L23.486 18.4167C23.5849 18.5154 23.6635 18.6327 23.717 18.7618C23.7706 18.8908 23.7981 19.0292 23.7981 19.169C23.7981 19.3087 23.7706 19.4471 23.717 19.5762C23.6635 19.7053 23.5849 19.8225 23.486 19.9212Z" fill="#34B361"/>
</g>
</g>
<defs>
<filter id="filter0_d_112_88" x="0" y="0.433105" width="62" height="62" filterUnits="userSpaceOnUse" color-interpolation-filters="sRGB">
<feFlood flood-opacity="0" result="BackgroundImageFix"/>
<feColorMatrix in="SourceAlpha" type="matrix" values="0 0 0 0 0 0 0 0 0 0 0 0 0 0 0 0 0 0 127 0" result="hardAlpha"/>
<feOffset dy="4"/>
<feGaussianBlur stdDeviation="2"/>
<feComposite in2="hardAlpha" operator="out"/>
<feColorMatrix type="matrix" values="0 0 0 0 0 0 0 0 0 0 0 0 0 0 0 0 0 0 0.25 0"/>
<feBlend mode="normal" in2="BackgroundImageFix" result="effect1_dropShadow_112_88"/>
<feBlend mode="normal" in="SourceGraphic" in2="effect1_dropShadow_112_88" result="shape"/>
</filter>
<clipPath id="clip0_112_88">
<rect width="34" height="34" fill="white" transform="translate(14 10.4331)"/>
</clipPath>
</defs>
</svg>
