<svg width="24" height="24" viewBox="0 0 24 24" fill="none" xmlns="http://www.w3.org/2000/svg">
<path d="M2.97017 2.771L13.9081 5.88C14.6493 6.12343 15.2966 6.59082 15.7609 7.21771C16.2251 7.8446 16.4834 8.6001 16.5001 9.38V19.89C16.5313 20.2218 16.4812 20.5562 16.3542 20.8643C16.2271 21.1724 16.0269 21.445 15.7709 21.6583C15.5149 21.8717 15.2108 22.0195 14.8848 22.089C14.5589 22.1584 14.2209 22.1475 13.9001 22.057L4.85217 19.597C4.11091 19.3664 3.46098 18.9084 2.99437 18.288C2.52775 17.6676 2.2681 16.9161 2.25217 16.14V4.688C2.23574 3.96162 2.50724 3.25822 3.00743 2.73124C3.50762 2.20426 4.19592 1.89646 4.92217 1.875H18.7501C19.5458 1.875 20.3089 2.19107 20.8715 2.75368C21.4341 3.31629 21.7501 4.07935 21.7501 4.875V13.828C21.7466 14.2325 21.6633 14.6322 21.505 15.0044C21.3467 15.3766 21.1165 15.7139 20.8276 15.997C20.5386 16.28 20.1967 16.5033 19.8213 16.654C19.446 16.8046 19.0446 16.8798 18.6401 16.875H16.5001" stroke="white" stroke-width="1.5" stroke-linecap="round" stroke-linejoin="round"/>
<path d="M12.375 13.875C12.1679 13.875 12 13.7071 12 13.5C12 13.2929 12.1679 13.125 12.375 13.125" stroke="white" stroke-width="1.5"/>
<path d="M12.375 13.875C12.5821 13.875 12.75 13.7071 12.75 13.5C12.75 13.2929 12.5821 13.125 12.375 13.125" stroke="white" stroke-width="1.5"/>
<path d="M21.75 9.375H16.5" stroke="white" stroke-width="1.5" stroke-linecap="round" stroke-linejoin="round"/>
</svg>
