<svg width="24" height="24" viewBox="0 0 24 24" fill="none" xmlns="http://www.w3.org/2000/svg">
<path d="M11.25 14.2612H16.5" stroke="white" stroke-width="1.5" stroke-linecap="round" stroke-linejoin="round"/>
<path d="M11.25 18.7612H16.5" stroke="white" stroke-width="1.5" stroke-linecap="round" stroke-linejoin="round"/>
<path d="M11.25 9.76123H16.5" stroke="white" stroke-width="1.5" stroke-linecap="round" stroke-linejoin="round"/>
<path d="M8.25 14.6362C8.04289 14.6362 7.875 14.4683 7.875 14.2612C7.875 14.0541 8.04289 13.8862 8.25 13.8862" stroke="white" stroke-width="1.5"/>
<path d="M8.25 14.6362C8.45711 14.6362 8.625 14.4683 8.625 14.2612C8.625 14.0541 8.45711 13.8862 8.25 13.8862" stroke="white" stroke-width="1.5"/>
<path d="M8.25 19.1362C8.04289 19.1362 7.875 18.9683 7.875 18.7612C7.875 18.5541 8.04289 18.3862 8.25 18.3862" stroke="white" stroke-width="1.5"/>
<path d="M8.25 19.1362C8.45711 19.1362 8.625 18.9683 8.625 18.7612C8.625 18.5541 8.45711 18.3862 8.25 18.3862" stroke="white" stroke-width="1.5"/>
<path d="M8.25 10.1362C8.04289 10.1362 7.875 9.96833 7.875 9.76123C7.875 9.55412 8.04289 9.38623 8.25 9.38623" stroke="white" stroke-width="1.5"/>
<path d="M8.25 10.1362C8.45711 10.1362 8.625 9.96833 8.625 9.76123C8.625 9.55412 8.45711 9.38623 8.25 9.38623" stroke="white" stroke-width="1.5"/>
<path d="M15.75 4.5H19.5C19.8978 4.5 20.2794 4.65804 20.5607 4.93934C20.842 5.22064 21 5.60218 21 6V21.75C21 22.1478 20.842 22.5294 20.5607 22.8107C20.2794 23.092 19.8978 23.25 19.5 23.25H4.5C4.10218 23.25 3.72064 23.092 3.43934 22.8107C3.15804 22.5294 3 22.1478 3 21.75V6C3 5.60218 3.15804 5.22064 3.43934 4.93934C3.72064 4.65804 4.10218 4.5 4.5 4.5H8.25C8.25 3.50544 8.64509 2.55161 9.34835 1.84835C10.0516 1.14509 11.0054 0.75 12 0.75C12.9946 0.75 13.9484 1.14509 14.6517 1.84835C15.3549 2.55161 15.75 3.50544 15.75 4.5Z" stroke="white" stroke-width="1.5" stroke-linecap="round" stroke-linejoin="round"/>
<path d="M12 4.51123C11.7929 4.51123 11.625 4.34333 11.625 4.13623C11.625 3.92912 11.7929 3.76123 12 3.76123" stroke="white" stroke-width="1.5"/>
<path d="M12 4.51123C12.2071 4.51123 12.375 4.34333 12.375 4.13623C12.375 3.92912 12.2071 3.76123 12 3.76123" stroke="white" stroke-width="1.5"/>
</svg>
