<svg width="578" height="179" viewBox="0 0 578 179" fill="none" xmlns="http://www.w3.org/2000/svg">
<path d="M181.996 52.9062V124H167.348V52.9062H181.996ZM210.316 83.2773V94.7031H177.992V83.2773H210.316ZM213.734 52.9062V64.3809H177.992V52.9062H213.734ZM236.195 71.168V124H222.084V71.168H236.195ZM221.205 57.3984C221.205 55.3477 221.921 53.6549 223.354 52.3203C224.786 50.9857 226.706 50.3184 229.115 50.3184C231.492 50.3184 233.396 50.9857 234.828 52.3203C236.293 53.6549 237.025 55.3477 237.025 57.3984C237.025 59.4492 236.293 61.1419 234.828 62.4766C233.396 63.8112 231.492 64.4785 229.115 64.4785C226.706 64.4785 224.786 63.8112 223.354 62.4766C221.921 61.1419 221.205 59.4492 221.205 57.3984ZM261.586 82.4473V124H247.523V71.168H260.707L261.586 82.4473ZM259.535 95.7285H255.727C255.727 91.8223 256.231 88.3066 257.24 85.1816C258.249 82.0241 259.665 79.3385 261.488 77.125C263.311 74.8789 265.476 73.1699 267.982 71.998C270.521 70.7936 273.354 70.1914 276.479 70.1914C278.952 70.1914 281.215 70.5495 283.266 71.2656C285.316 71.9818 287.074 73.1211 288.539 74.6836C290.036 76.2461 291.176 78.3132 291.957 80.8848C292.771 83.4564 293.178 86.5977 293.178 90.3086V124H279.018V90.2598C279.018 87.916 278.692 86.0931 278.041 84.791C277.39 83.4889 276.43 82.5775 275.16 82.0566C273.923 81.5033 272.393 81.2266 270.57 81.2266C268.682 81.2266 267.038 81.6009 265.639 82.3496C264.271 83.0983 263.132 84.14 262.221 85.4746C261.342 86.7767 260.674 88.3066 260.219 90.0645C259.763 91.8223 259.535 93.7103 259.535 95.7285ZM332.387 112.086V88.5508C332.387 86.8581 332.11 85.4095 331.557 84.2051C331.003 82.9681 330.141 82.0078 328.969 81.3242C327.829 80.6406 326.348 80.2988 324.525 80.2988C322.963 80.2988 321.612 80.5755 320.473 81.1289C319.333 81.6497 318.454 82.4147 317.836 83.4238C317.217 84.4004 316.908 85.556 316.908 86.8906H302.846C302.846 84.6445 303.367 82.5124 304.408 80.4941C305.45 78.4759 306.964 76.7018 308.949 75.1719C310.935 73.6094 313.295 72.3887 316.029 71.5098C318.796 70.6309 321.889 70.1914 325.307 70.1914C329.408 70.1914 333.054 70.875 336.244 72.2422C339.434 73.6094 341.941 75.6602 343.764 78.3945C345.619 81.1289 346.547 84.5469 346.547 88.6484V111.256C346.547 114.153 346.726 116.529 347.084 118.385C347.442 120.208 347.963 121.803 348.646 123.17V124H334.438C333.754 122.568 333.233 120.777 332.875 118.629C332.549 116.448 332.387 114.267 332.387 112.086ZM334.242 91.8223L334.34 99.7812H326.479C324.623 99.7812 323.012 99.9928 321.645 100.416C320.277 100.839 319.154 101.441 318.275 102.223C317.396 102.971 316.745 103.85 316.322 104.859C315.932 105.868 315.736 106.975 315.736 108.18C315.736 109.384 316.013 110.475 316.566 111.451C317.12 112.395 317.917 113.144 318.959 113.697C320.001 114.218 321.221 114.479 322.621 114.479C324.737 114.479 326.576 114.055 328.139 113.209C329.701 112.363 330.906 111.321 331.752 110.084C332.631 108.847 333.087 107.675 333.119 106.568L336.83 112.525C336.309 113.86 335.593 115.243 334.682 116.676C333.803 118.108 332.68 119.459 331.312 120.729C329.945 121.965 328.301 122.991 326.381 123.805C324.46 124.586 322.182 124.977 319.545 124.977C316.192 124.977 313.148 124.309 310.414 122.975C307.712 121.607 305.564 119.736 303.969 117.359C302.406 114.951 301.625 112.216 301.625 109.156C301.625 106.389 302.146 103.932 303.188 101.783C304.229 99.6348 305.759 97.8281 307.777 96.3633C309.828 94.8659 312.383 93.7428 315.443 92.9941C318.503 92.2129 322.051 91.8223 326.088 91.8223H334.242ZM371.156 82.4473V124H357.094V71.168H370.277L371.156 82.4473ZM369.105 95.7285H365.297C365.297 91.8223 365.801 88.3066 366.811 85.1816C367.82 82.0241 369.236 79.3385 371.059 77.125C372.882 74.8789 375.046 73.1699 377.553 71.998C380.092 70.7936 382.924 70.1914 386.049 70.1914C388.523 70.1914 390.785 70.5495 392.836 71.2656C394.887 71.9818 396.645 73.1211 398.109 74.6836C399.607 76.2461 400.746 78.3132 401.527 80.8848C402.341 83.4564 402.748 86.5977 402.748 90.3086V124H388.588V90.2598C388.588 87.916 388.262 86.0931 387.611 84.791C386.96 83.4889 386 82.5775 384.73 82.0566C383.493 81.5033 381.964 81.2266 380.141 81.2266C378.253 81.2266 376.609 81.6009 375.209 82.3496C373.842 83.0983 372.702 84.14 371.791 85.4746C370.912 86.7767 370.245 88.3066 369.789 90.0645C369.333 91.8223 369.105 93.7103 369.105 95.7285ZM451.332 105.396C451.332 104.127 451.137 102.988 450.746 101.979C450.388 100.937 449.704 99.9928 448.695 99.1465C447.686 98.2676 446.27 97.4049 444.447 96.5586C442.624 95.7122 440.264 94.8333 437.367 93.9219C434.145 92.8802 431.085 91.7083 428.188 90.4062C425.323 89.1042 422.784 87.5905 420.57 85.8652C418.389 84.1074 416.664 82.0729 415.395 79.7617C414.158 77.4505 413.539 74.765 413.539 71.7051C413.539 68.7428 414.19 66.0573 415.492 63.6484C416.794 61.207 418.617 59.1237 420.961 57.3984C423.305 55.6406 426.072 54.2897 429.262 53.3457C432.484 52.4017 436.016 51.9297 439.857 51.9297C445.098 51.9297 449.672 52.8737 453.578 54.7617C457.484 56.6497 460.512 59.2376 462.66 62.5254C464.841 65.8132 465.932 69.5729 465.932 73.8047H451.381C451.381 71.7214 450.941 69.8984 450.062 68.3359C449.216 66.7409 447.914 65.4876 446.156 64.5762C444.431 63.6647 442.25 63.209 439.613 63.209C437.074 63.209 434.958 63.5996 433.266 64.3809C431.573 65.1296 430.303 66.1549 429.457 67.457C428.611 68.7266 428.188 70.1589 428.188 71.7539C428.188 72.9583 428.48 74.0488 429.066 75.0254C429.685 76.002 430.596 76.9134 431.801 77.7598C433.005 78.6061 434.486 79.4036 436.244 80.1523C438.002 80.901 440.036 81.6335 442.348 82.3496C446.221 83.5215 449.623 84.8398 452.553 86.3047C455.515 87.7695 457.989 89.4134 459.975 91.2363C461.96 93.0592 463.458 95.1263 464.467 97.4375C465.476 99.7487 465.98 102.369 465.98 105.299C465.98 108.391 465.378 111.158 464.174 113.6C462.969 116.041 461.228 118.108 458.949 119.801C456.671 121.493 453.952 122.779 450.795 123.658C447.637 124.537 444.105 124.977 440.199 124.977C436.684 124.977 433.217 124.521 429.799 123.609C426.381 122.665 423.272 121.249 420.473 119.361C417.706 117.473 415.492 115.064 413.832 112.135C412.172 109.205 411.342 105.738 411.342 101.734H426.039C426.039 103.948 426.381 105.82 427.064 107.35C427.748 108.88 428.708 110.117 429.945 111.061C431.215 112.005 432.712 112.688 434.438 113.111C436.195 113.535 438.116 113.746 440.199 113.746C442.738 113.746 444.822 113.388 446.449 112.672C448.109 111.956 449.33 110.963 450.111 109.693C450.925 108.424 451.332 106.992 451.332 105.396ZM499.379 124.977C495.277 124.977 491.599 124.326 488.344 123.023C485.089 121.689 482.322 119.85 480.043 117.506C477.797 115.162 476.072 112.444 474.867 109.352C473.663 106.227 473.061 102.906 473.061 99.3906V97.4375C473.061 93.4336 473.63 89.7715 474.77 86.4512C475.909 83.1309 477.536 80.25 479.652 77.8086C481.801 75.3672 484.405 73.4954 487.465 72.1934C490.525 70.8587 493.975 70.1914 497.816 70.1914C501.56 70.1914 504.88 70.8099 507.777 72.0469C510.674 73.2839 513.1 75.0417 515.053 77.3203C517.038 79.599 518.536 82.3333 519.545 85.5234C520.554 88.681 521.059 92.1966 521.059 96.0703V101.93H479.066V92.5547H507.24V91.4805C507.24 89.5273 506.882 87.7858 506.166 86.2559C505.482 84.6934 504.441 83.4564 503.041 82.5449C501.641 81.6335 499.851 81.1777 497.67 81.1777C495.814 81.1777 494.219 81.5846 492.885 82.3984C491.55 83.2122 490.46 84.3516 489.613 85.8164C488.799 87.2812 488.181 89.0065 487.758 90.9922C487.367 92.9453 487.172 95.0938 487.172 97.4375V99.3906C487.172 101.507 487.465 103.46 488.051 105.25C488.669 107.04 489.532 108.587 490.639 109.889C491.778 111.191 493.145 112.2 494.74 112.916C496.368 113.632 498.207 113.99 500.258 113.99C502.797 113.99 505.157 113.502 507.338 112.525C509.551 111.516 511.456 110.003 513.051 107.984L519.887 115.406C518.78 117.001 517.266 118.531 515.346 119.996C513.458 121.461 511.179 122.665 508.51 123.609C505.84 124.521 502.797 124.977 499.379 124.977ZM553.383 124.977C549.281 124.977 545.603 124.326 542.348 123.023C539.092 121.689 536.326 119.85 534.047 117.506C531.801 115.162 530.076 112.444 528.871 109.352C527.667 106.227 527.064 102.906 527.064 99.3906V97.4375C527.064 93.4336 527.634 89.7715 528.773 86.4512C529.913 83.1309 531.54 80.25 533.656 77.8086C535.805 75.3672 538.409 73.4954 541.469 72.1934C544.529 70.8587 547.979 70.1914 551.82 70.1914C555.564 70.1914 558.884 70.8099 561.781 72.0469C564.678 73.2839 567.104 75.0417 569.057 77.3203C571.042 79.599 572.54 82.3333 573.549 85.5234C574.558 88.681 575.062 92.1966 575.062 96.0703V101.93H533.07V92.5547H561.244V91.4805C561.244 89.5273 560.886 87.7858 560.17 86.2559C559.486 84.6934 558.445 83.4564 557.045 82.5449C555.645 81.6335 553.855 81.1777 551.674 81.1777C549.818 81.1777 548.223 81.5846 546.889 82.3984C545.554 83.2122 544.464 84.3516 543.617 85.8164C542.803 87.2812 542.185 89.0065 541.762 90.9922C541.371 92.9453 541.176 95.0938 541.176 97.4375V99.3906C541.176 101.507 541.469 103.46 542.055 105.25C542.673 107.04 543.536 108.587 544.643 109.889C545.782 111.191 547.149 112.2 548.744 112.916C550.372 113.632 552.211 113.99 554.262 113.99C556.801 113.99 559.161 113.502 561.342 112.525C563.555 111.516 565.46 110.003 567.055 107.984L573.891 115.406C572.784 117.001 571.27 118.531 569.35 119.996C567.462 121.461 565.183 122.665 562.514 123.609C559.844 124.521 556.801 124.977 553.383 124.977Z" fill="#34B361"/>
<g clip-path="url(#clip0_97_14)">
<path d="M143.626 107.187C143.626 107.187 116.696 57.8154 71.8131 57.8154C26.9299 57.8154 0 107.187 0 107.187C0 107.187 26.9299 156.558 71.8131 156.558C116.696 156.558 143.626 107.187 143.626 107.187ZM10.5296 107.187C14.8634 100.585 19.856 94.4408 25.4308 88.8477C36.9838 77.2768 52.7826 66.7921 71.8131 66.7921C90.8436 66.7921 106.634 77.2768 118.204 88.8477C123.779 94.4408 128.772 100.585 133.106 107.187C132.591 107.965 132.007 108.827 131.355 109.772C128.348 114.081 123.905 119.826 118.204 125.526C106.634 137.097 90.8346 147.582 71.8131 147.582C52.7916 147.582 36.9927 137.097 25.4218 125.526C19.847 119.933 14.8634 113.788 10.5296 107.187Z" fill="url(#paint0_radial_97_14)"/>
<path d="M54.2327 119.41C54.8831 126.736 60.8824 131.936 70.0154 132.608V137.952H74.5995V132.608C84.5764 131.821 90.7647 126.288 90.7647 118.104C90.7647 111.116 86.6025 107.073 77.7728 104.796L74.5995 103.974V87.2638C79.5308 87.7473 82.8579 90.4019 83.6974 94.3663H90.1581C89.4285 87.3342 83.3897 82.2886 74.5995 81.7304V76.4211H70.0154V81.8403C61.4934 82.8512 55.6435 88.3099 55.6435 95.7112C55.6435 102.102 59.8891 106.624 67.3388 108.532L70.0198 109.244V126.96C64.9699 126.213 61.4934 123.444 60.6539 119.41H54.2327ZM69.1364 102.55C64.5523 101.394 62.1043 98.924 62.1043 95.4475C62.1043 91.2985 65.1984 88.2351 70.0154 87.4133V102.774L69.1364 102.55ZM76.129 110.778C81.7855 112.197 84.2687 114.553 84.2687 118.552C84.2687 123.374 80.6384 126.587 74.5995 127.075V110.395L76.129 110.778Z" fill="#34B361"/>
</g>
<path d="M40.9142 82.7057C42.0496 95.4939 52.5211 104.569 68.4623 105.743V115.071H76.4636V105.743C93.8777 104.37 104.679 94.7114 104.679 80.4272C104.679 68.2297 97.4143 61.1719 82.0024 57.1981L76.4636 55.7636V26.5968C85.0709 27.4407 90.8782 32.0742 92.3435 38.9938H103.62C102.347 26.7196 91.8065 17.9127 76.4636 16.9385V7.67139H68.4623V17.1303C53.5874 18.8947 43.3767 28.4226 43.3767 41.3413C43.3767 52.4956 50.7873 60.3895 63.7904 63.7189L68.47 64.9616V95.8852C59.6555 94.581 53.5874 89.748 52.1221 82.7057H40.9142ZM66.928 53.278C58.9267 51.2605 54.6537 46.9491 54.6537 40.881C54.6537 33.6392 60.0544 28.2922 68.4623 26.8576V53.6693L66.928 53.278ZM79.1333 67.639C89.0064 70.1168 93.3407 74.2287 93.3407 81.2097C93.3407 89.6253 87.0041 95.2331 76.4636 96.0846V66.9715L79.1333 67.639Z" fill="url(#paint1_linear_97_14)"/>
<defs>
<radialGradient id="paint0_radial_97_14" cx="0" cy="0" r="1" gradientUnits="userSpaceOnUse" gradientTransform="translate(49.0119 62.4369) rotate(154.359) scale(17.7279 25.7861)">
<stop offset="0.9999" stop-color="#666666" stop-opacity="0"/>
<stop offset="1" stop-color="#34B361"/>
</radialGradient>
<linearGradient id="paint1_linear_97_14" x1="72.7967" y1="7.67139" x2="72.7967" y2="115.071" gradientUnits="userSpaceOnUse">
<stop offset="0.552785" stop-color="#34B361"/>
<stop offset="0.552885"/>
<stop offset="0.552985" stop-color="#666666" stop-opacity="0"/>
</linearGradient>
<clipPath id="clip0_97_14">
<rect width="143.626" height="143.626" fill="white" transform="translate(0 35.3738)"/>
</clipPath>
</defs>
</svg>
