<svg width="95" height="119" viewBox="0 0 95 119" fill="none" xmlns="http://www.w3.org/2000/svg">
<path d="M95 70.8976C95 70.8976 77.1875 38.2413 47.5 38.2413C17.8125 38.2413 0 70.8976 0 70.8976C0 70.8976 17.8125 103.554 47.5 103.554C77.1875 103.554 95 70.8976 95 70.8976ZM6.96469 70.8976C9.83121 66.5311 13.1335 62.4668 16.8209 58.7673C24.4625 51.1138 34.9125 44.1788 47.5 44.1788C60.0875 44.1788 70.5316 51.1138 78.185 58.7673C81.8724 62.4668 85.1747 66.5311 88.0413 70.8976C87.7008 71.4122 87.3149 71.9822 86.8834 72.6076C84.8944 75.4576 81.9553 79.2576 78.185 83.0279C70.5316 90.6813 60.0816 97.6163 47.5 97.6163C34.9184 97.6163 24.4684 90.6813 16.815 83.0279C13.1276 79.3284 9.83121 75.2641 6.96469 70.8976Z" fill="url(#paint0_radial_2002_127)"/>
<path d="M35.8716 78.9822C36.3018 83.8283 40.27 87.2674 46.3109 87.7121V91.2472H49.343V87.7121C55.9421 87.1918 60.0353 83.5318 60.0353 78.1188C60.0353 73.4965 57.2823 70.822 51.4419 69.3161L49.343 68.7725V57.7198C52.6048 58.0395 54.8054 59.7954 55.3607 62.4176H59.6341C59.1515 57.7663 55.1572 54.4289 49.343 54.0597V50.548H46.3109V54.1324C40.6741 54.801 36.8048 58.4116 36.8048 63.3072C36.8048 67.5341 39.613 70.5255 44.5405 71.7871L46.3138 72.2581V83.9765C42.9736 83.4823 40.6741 81.6509 40.1188 78.9822H35.8716ZM45.7295 67.8306C42.6974 67.066 41.0782 65.4322 41.0782 63.1327C41.0782 60.3885 43.1248 58.3622 46.3109 57.8186V67.9789L45.7295 67.8306ZM50.3547 73.2727C54.0961 74.2116 55.7386 75.7698 55.7386 78.4153C55.7386 81.6044 53.3373 83.7294 49.343 84.0521V73.0197L50.3547 73.2727Z" fill="white"/>
<path d="M27.0623 54.7049C27.8132 63.1636 34.7395 69.1664 45.2837 69.9427V76.1129H50.576V69.9427C62.0944 69.0344 69.2389 62.646 69.2389 53.1979C69.2389 45.13 64.4336 40.4617 54.2396 37.8333L50.576 36.8844V17.5924C56.2693 18.1505 60.1104 21.2153 61.0796 25.7922H68.5386C67.6963 17.6735 60.7244 11.8484 50.576 11.204V5.07434H45.2837V11.3308C35.4448 12.4979 28.6911 18.8 28.6911 27.3449C28.6911 34.7228 33.5927 39.9441 42.1935 42.1463L45.2887 42.9684V63.4224C39.4585 62.5598 35.4448 59.363 34.4756 54.7049H27.0623ZM44.2688 35.2404C38.9764 33.9059 36.1501 31.0542 36.1501 27.0405C36.1501 22.2505 39.7223 18.7137 45.2837 17.7649V35.4991L44.2688 35.2404ZM52.3418 44.7392C58.8723 46.3782 61.7392 49.098 61.7392 53.7155C61.7392 59.2819 57.548 62.9911 50.576 63.5543V44.2978L52.3418 44.7392Z" fill="url(#paint1_linear_2002_127)"/>
<defs>
<radialGradient id="paint0_radial_2002_127" cx="0" cy="0" r="1" gradientUnits="userSpaceOnUse" gradientTransform="translate(32.4184 41.2982) rotate(154.359) scale(11.726 17.0559)">
<stop offset="0.9999" stop-color="#666666" stop-opacity="0"/>
<stop offset="1" stop-color="white"/>
</radialGradient>
<linearGradient id="paint1_linear_2002_127" x1="48.1506" y1="5.07434" x2="48.1506" y2="76.1129" gradientUnits="userSpaceOnUse">
<stop offset="0.552785" stop-color="white"/>
<stop offset="0.552885"/>
<stop offset="0.552985" stop-color="#666666" stop-opacity="0"/>
</linearGradient>
</defs>
</svg>
